<?xml version="1.0" encoding="utf-8"?>
<!DOCTYPE svg PUBLIC "-//W3C//DTD SVG 20010904//EN" "http://www.w3.org/TR/2001/REC-SVG-20010904/DTD/svg10.dtd">
<svg version="1.0" xmlns="http://www.w3.org/2000/svg" width="258pt" height="258pt" viewBox="0 0 258 258" style="" preserveAspectRatio="xMidYMid meet">
<g fill="#F8F8F7FF" stroke="#F8F8F7FF" stroke-width="12" stroke-linejoin="round">
<path d="M 60.500 21.149 C 48.950 29.466 38.038 37.154 36.250 38.234 C 34.463 39.314 33.020 40.716 33.045 41.349 C 33.080 42.269 91.613 84.733 131.808 113.000 C 146.282 123.178 150.000 125.993 149.969 126.748 C 149.952 127.162 144.664 131.204 138.219 135.731 C 125.020 145.001 97.815 164.458 93.800 167.500 C 92.348 168.600 78.098 178.725 62.132 190.000 C 46.167 201.275 33.081 210.998 33.052 211.607 C 33.006 212.592 76.680 244.208 81.062 246.362 C 83.199 247.412 79.101 250.183 143.500 204.146 C 171.550 184.094 206.081 159.417 220.235 149.307 C 234.389 139.197 246.424 130.075 246.980 129.037 C 248.320 126.534 247.163 123.803 243.500 120.816 C 241.850 119.471 223.625 106.291 203.000 91.528 C 182.375 76.765 155.375 57.408 143.000 48.512 C 130.625 39.616 113.300 27.235 104.500 21.000 C 95.700 14.764 87.571 8.838 86.436 7.831 C 85.300 6.824 83.725 6.006 82.936 6.014 C 82.146 6.022 72.050 12.833 60.500 21.149 M 108.866 27.590 C 119.517 35.240 131.353 43.668 135.169 46.317 C 158.196 62.305 196.534 90.343 196.719 91.332 C 196.839 91.974 186.943 99.565 174.727 108.201 L 152.517 123.902 149.759 122.201 C 148.241 121.265 141.193 116.450 134.095 111.500 L 121.190 102.500 111.434 77.500 C 106.069 63.750 100.661 49.800 99.417 46.500 C 98.173 43.200 94.700 34.332 91.700 26.794 C 86.552 13.856 85.855 10.905 88.408 12.849 C 89.009 13.306 98.215 19.939 108.866 27.590 M 175.100 145.293 C 186.870 153.704 196.500 161.131 196.500 161.796 C 196.500 162.462 181.650 173.554 163.500 186.446 C 145.350 199.337 128.700 211.256 126.500 212.932 C 115.090 221.624 87.429 240.765 86.821 240.389 C 86.435 240.151 86.831 238.279 87.699 236.228 C 88.567 234.178 96.367 214.300 105.031 192.055 L 120.783 151.609 135.642 140.882 C 143.814 134.981 151.220 130.119 152.100 130.077 C 152.979 130.035 163.329 136.882 175.100 145.293 M 226.489 111.913 C 235.833 118.618 243.852 124.771 244.308 125.586 C 245.629 127.947 241.847 130.921 202.104 158.779 C 200.525 159.886 199.591 159.549 195.178 156.279 C 192.372 154.201 181.925 146.700 171.962 139.612 C 157.314 129.191 154.101 126.490 155.174 125.500 C 155.903 124.827 159.425 122.254 163.000 119.782 C 166.575 117.311 176.469 110.313 184.986 104.232 L 200.471 93.176 204.986 96.449 C 207.469 98.250 217.145 105.209 226.489 111.913 M 87.223 23.049 C 89.933 29.897 97.324 48.775 103.647 65.000 C 109.969 81.225 115.383 95.063 115.678 95.750 C 116.334 97.280 113.386 97.433 112.449 95.917 C 112.081 95.321 109.467 93.308 106.640 91.443 C 103.813 89.577 94.300 82.856 85.500 76.507 C 76.700 70.158 62.398 59.924 53.718 53.765 C 45.039 47.606 38.064 42.005 38.218 41.320 C 38.558 39.818 80.117 10.019 81.397 10.359 C 81.890 10.491 84.512 16.201 87.223 23.049 M 102.608 190.540 C 83.377 239.876 82.358 242.381 81.386 242.705 C 80.015 243.162 37.598 212.654 38.000 211.500 C 38.668 209.582 114.501 156.082 114.783 157.329 C 114.939 158.018 109.460 172.963 102.608 190.540 "/></g>
</svg>
